<?xml version="1.0" ?><!DOCTYPE svg  PUBLIC '-//W3C//DTD SVG 1.1//EN'  'http://www.w3.org/Graphics/SVG/1.1/DTD/svg11.dtd'><svg height="80px" id="Layer_1" style="enable-background:new 0 0 80 80;" version="1.1" viewBox="0 0 80 80" width="80px" xml:space="preserve" xmlns="http://www.w3.org/2000/svg" xmlns:xlink="http://www.w3.org/1999/xlink"><style type="text/css">
	.st0{fill:#1C2B36;}
</style><path class="st0" d="M52.5,39.2c-1.6,1.1-4.2,1.7-5.9,1.4c3.5-0.9,4.9-2.5,5-3c-0.4-1.2-1.4-3.3-2.1-4.8c-0.7-1.3-0.2-4.5,0.5-5.9  c4-3.8,1.8-6.1,2.8-7c1.4-1.8,6.3-5.2,6.1-6.1c-2.6-5-9.4-5.8-9.4-5.8s-1.6,3.1-2.1,7c-3.3,0.3-6,2.8-6.7,4.9  c-0.1,0.3-0.5,0.1-0.6,0.3c-0.1-0.1-0.5,0-0.6-0.3c-0.7-2.1-3.4-4.6-6.7-4.9c-0.6-3.9-2.1-7-2.1-7s-6.8,0.8-9.4,5.8  c-0.2,0.9,4.7,4.3,6.1,6.1c1,0.9-1.2,3.2,2.8,7c0.7,1.4,1.2,4.6,0.5,5.9c-0.8,1.4-1.8,3.6-2.1,4.8c0.1,0.5,1.5,2.1,5,3  c-1.7,0.3-4.3-0.3-5.9-1.4c-3,2.6-13.6,10.4-14,16.5c1.3,2.1,1.5,4.1,3.8,5.6c1.6,0.8,0.4,3.2,2.9,4.9c3.3,2.3,8,0.6,9.4,2  c2.5,2.5,7.2,3.7,10.5,3.7c3.3,0,7.9-1.1,10.5-3.7c1.3-1.3,6.1,0.4,9.4-2c2.4-1.7,1.2-4.2,2.9-4.9c2.3-1.5,2.5-3.5,3.8-5.6  C66,49.6,55.5,41.8,52.5,39.2z"/></svg>